#!OML:ASF F:\VICON\USERDATA\INSTALL\rory3\rory3.ASF
:FULLY-SPECIFIED
:DEGREES
1009
root -0.915209 18.6267 10.3201 -173.124 -44.8962 185.351
lowerback 13.6637 0.681625 -7.29162
upperback 6.04893 -0.858738 -4.88686
thorax -1.26641 -0.786538 -0.88444
lowerneck -6.76821 9.05154 -3.81365
upperneck 28.9574 10.0177 6.33305
head 9.67095 4.31225 3.72036
rclavicle 7.31528e-014 6.52014e-014
rhumerus -27.7306 24.9324 -81.5484
rradius 130.787
rwrist -26.8713
rhand -41.5007 5.9409
rfingers 7.12502
rthumb -14.4141 -23.5386
lclavicle 7.31528e-014 6.52014e-014
lhumerus -9.62727 -16.8189 95.9436
lradius 62.8306
lwrist 77.9814
lhand -35.0346 59.0892
lfingers 7.12502
lthumb -8.17819 88.9109
rfemur -21.0898 12.385 17.1771
rtibia 30.4593
rfoot -18.2918 -24.403
rtoes -4.53264
lfemur -23.8026 -0.629927 -5.97781
ltibia 25.4
lfoot -11.3261 21.0312
ltoes -4.82472
1010
root -0.840458 18.615 10.2689 -172.968 -45.0533 184.928
lowerback 13.7373 0.728902 -7.34864
upperback 6.03424 -0.817175 -4.92306
thorax -1.32252 -0.766039 -0.896377
lowerneck -6.76677 8.95109 -3.77359
upperneck 29.088 9.85633 6.33878
head 9.72951 4.23561 3.70924
rclavicle -4.45278e-014 0
rhumerus -27.9114 24.5072 -81.8793
rradius 130.945
rwrist -26.6712
rhand -41.8497 5.62795
rfingers 7.12502
rthumb -14.7503 -23.8272
lclavicle -4.45278e-014 0
lhumerus -9.77658 -17.0444 95.8549
lradius 63.1629
lwrist 78.0702
lhand -35.3731 59.6529
lfingers 7.12502
lthumb -8.50484 89.4616
rfemur -21.2396 12.1365 17.2212
rtibia 30.9359
rfoot -18.4062 -24.3922
rtoes -4.60698
lfemur -23.6945 -0.805793 -6.00608
ltibia 25.2191
lfoot -10.9973 21.2934
ltoes -5.91953
1011
root -0.762515 18.6059 10.2171 -172.894 -45.225 184.593
lowerback 13.8045 0.746552 -7.37389
upperback 6.04503 -0.804468 -4.91004
thorax -1.34701 -0.760308 -0.870318
lowerneck -6.69153 8.91721 -3.75518
upperneck 29.0642 9.83554 6.23167
head 9.71653 4.21805 3.66321
rclavicle -4.77083e-014 -7.95139e-015
rhumerus -28.1013 24.195 -82.1506
rradius 131.067
rwrist -26.7029
rhand -42.0813 5.75936
rfingers 7.12502
rthumb -14.9735 -23.6793
lclavicle -4.77083e-014 -7.95139e-015
lhumerus -9.8426 -17.0664 95.7473
lradius 63.3858
lwrist 78.1409
lhand -35.7327 60.0003
lfingers 7.12502
lthumb -8.85187 89.7947
rfemur -21.3332 11.9642 17.3372
rtibia 31.3504
rfoot -18.5777 -24.4008
rtoes -4.37192
lfemur -23.5601 -0.896787 -5.97903
ltibia 25.001
lfoot -10.6661 21.5557
ltoes -6.21992
1012
root -0.687699 18.601 10.1617 -172.964 -45.506 184.58
lowerback 13.7274 0.727918 -7.16973
upperback 6.05446 -0.775182 -4.78747
thorax -1.29812 -0.739313 -0.859488
lowerneck -6.66084 8.84718 -3.85777
upperneck 29.114 9.76659 6.18192
head 9.7298 4.16896 3.65792
rclavicle -9.85972e-014 1.22451e-013
rhumerus -28.3251 23.8743 -82.334
rradius 131.129
rwrist -26.8085
rhand -42.1455 5.88891
rfingers 7.12502
rthumb -15.0353 -23.5452
lclavicle -9.85972e-014 1.22451e-013
lhumerus -9.94034 -17.0358 95.7344
lradius 63.571
lwrist 78.0918
lhand -35.8861 59.9685
lfingers 7.12502
lthumb -8.99986 89.7566
rfemur -21.4292 11.7988 17.6858
rtibia 31.6564
rfoot -18.8066 -24.4805
rtoes -3.99578
lfemur -23.5049 -1.05027 -5.66379
ltibia 24.7699
lfoot -10.5653 21.727
ltoes -5.64526
1013
root -0.611988 18.5964 10.1052 -172.927 -45.8123 184.387
lowerback 13.7245 0.747398 -7.09496
upperback 6.06125 -0.727084 -4.69118
thorax -1.29075 -0.711913 -0.806915
lowerneck -6.66388 8.73733 -3.97415
upperneck 29.2155 9.62417 6.19732
head 9.76728 4.08933 3.67539
rclavicle 8.26944e-014 -9.06458e-014
rhumerus -28.5299 23.5437 -82.5291
rradius 131.014
rwrist -26.7479
rhand -42.5262 5.89472
rfingers 7.12502
rthumb -15.402 -23.5115
lclavicle 8.26944e-014 -9.06458e-014
lhumerus -10.0783 -17.0088 95.7304
lradius 63.7497
lwrist 78.0509
lhand -36.0621 60.6644
lfingers 7.12502
lthumb -9.16972 269.555
rfemur -21.4304 11.5983 17.8803
rtibia 31.8379
rfoot -19.0203 -24.4634
rtoes -3.47271
lfemur -23.4328 -1.27969 -5.47065
ltibia 24.5564
lfoot -10.613 21.7958
ltoes -4.86686
1014
root -0.531227 18.5898 10.0434 -173.084 -46.099 184.383
lowerback 13.719 0.75124 -6.98839
upperback 6.12128 -0.692421 -4.55166
thorax -1.22534 -0.694358 -0.725215
lowerneck -6.59143 8.67094 -4.11395
upperneck 29.1032 9.58113 6.15321
head 9.70988 4.0584 3.67058
rclavicle -1.98785e-014 -3.18055e-015
rhumerus -28.6232 23.3137 -82.712
rradius 130.793
rwrist -26.861
rhand -42.7134 5.90561
rfingers 7.12502
rthumb -15.5824 -23.4867
lclavicle -1.98785e-014 -3.18055e-015
lhumerus -10.2463 -16.8345 95.5867
lradius 63.9337
lwrist 78.0669
lhand -36.8639 61.4848
lfingers 7.12502
lthumb -9.9433 268.77
rfemur -21.3094 11.4418 18.253
rtibia 31.9093
rfoot -19.1506 -24.4528
rtoes -3.12062
lfemur -23.3208 -1.44423 -5.11722
ltibia 24.3508
lfoot -10.6792 21.9194
ltoes -4.18632
